<svg height="413pt" viewBox="-38 0 413 413.284" width="413pt" xmlns="http://www.w3.org/2000/svg"><path d="m284.902344 14.347656s-86.984375-14.347656-116.273438-14.347656c-29.285156 0-116.269531 14.347656-116.269531 14.347656s11.84375 64.152344-52.21875 64.152344v95.792969c0 50.546875 6.109375 172.835937 168.488281 238.992187 162.402344-66.15625 168.488282-188.441406 168.488282-238.992187v-95.796875c-64.058594 0-52.214844-64.148438-52.214844-64.148438zm0 0" fill="#43a3f9"/><path d="m178.75 384.980469c-142.398438-62.890625-142.429688-173.722657-142.429688-210.6875v-73.023438c13.9375-3.578125 26.414063-11.40625 35.695313-22.402343 9.683594-12.121094 15.546875-26.851563 16.839844-42.316407 29.722656-4.535156 72.796875-10.503906 89.894531-10.503906s60.171875 5.980469 89.878906 10.515625c1.296875 15.464844 7.160156 30.195312 16.851563 42.316406 9.285156 10.996094 21.761719 18.824219 35.699219 22.402344v73.011719c0 36.964843-.015626 147.800781-142.429688 210.6875zm0 0" fill="#288aea"/><path d="m168.628906 384.980469c-142.398437-62.890625-142.425781-173.722657-142.425781-210.6875v-73.023438c13.933594-3.578125 26.410156-11.40625 35.691406-22.402343 9.683594-12.121094 15.546875-26.851563 16.839844-42.316407 29.722656-4.535156 72.800781-10.503906 89.894531-10.503906 17.097656 0 60.171875 5.972656 89.898438 10.503906 1.285156 15.46875 7.148437 30.203125 16.835937 42.328125 9.28125 10.996094 21.757813 18.824219 35.695313 22.402344v73.011719c0 36.964843-.027344 147.800781-142.429688 210.6875zm0 0" fill="#ffdf46"/><path d="m275.363281 78.878906c-9.6875-12.121094-15.546875-26.851562-16.835937-42.316406-29.726563-4.535156-72.773438-10.507812-89.898438-10.507812-2.707031 0-6.121094.164062-9.980468.433593 20.492187 1.4375 54.898437 6.253907 79.914062 10.070313 1.289062 15.464844 7.148438 30.199218 16.835938 42.320312 9.28125 10.996094 21.757812 18.824219 35.695312 22.402344v73.011719c0 36.070312-.082031 142.476562-132.445312 206.03125 3.269531 1.570312 6.550781 3.136719 10 4.65625 142.382812-62.886719 142.410156-173.722657 142.410156-210.6875v-73.023438c-13.9375-3.574219-26.414063-11.398437-35.695313-22.390625zm0 0" fill="#ffc32c"/><path d="m153.394531 273.332031c-4.027343-.003906-7.886719-1.601562-10.734375-4.449219l-48.683594-48.683593c-5.6875-5.960938-5.574218-15.375.25-21.203125 5.824219-5.828125 15.238282-5.941406 21.203126-.257813l37.953124 37.953125 92.316407-92.300781c5.960937-5.6875 15.371093-5.578125 21.203125.246094 5.828125 5.824219 5.945312 15.238281.257812 21.203125l-103.03125 103.046875c-2.847656 2.847656-6.707031 4.445312-10.734375 4.445312zm0 0" fill="#ffc32c"/><path d="m141.453125 273.332031c-4.023437-.003906-7.882813-1.601562-10.730469-4.449219l-48.683594-48.683593c-5.894531-5.933594-5.878906-15.515625.035157-21.425781 5.914062-5.914063 15.496093-5.929688 21.429687-.035157l37.949219 37.953125 92.304687-92.300781c3.800782-3.988281 9.460938-5.601563 14.792969-4.222656 5.332031 1.382812 9.496094 5.542969 10.882813 10.875 1.386718 5.332031-.226563 10.996093-4.210938 14.796875l-103.035156 103.046875c-2.847656 2.84375-6.707031 4.441406-10.734375 4.445312zm0 0" fill="#2c5168"/></svg>