<?xml version="1.0" encoding="UTF-8"?>
<svg width="485px" height="340px" viewBox="0 0 485 340" version="1.1" xmlns="http://www.w3.org/2000/svg" xmlns:xlink="http://www.w3.org/1999/xlink">
    <!-- Generator: Sketch 48.1 (47250) - http://www.bohemiancoding.com/sketch -->
    <title>map</title>
    <desc>Created with Sketch.</desc>
    <defs></defs>
    <g id="Cleaning" stroke="none" stroke-width="1" fill="none" fill-rule="evenodd" transform="translate(-715.000000, -6283.000000)">
        <g id="Where-Does-Handy-Operate" transform="translate(0.000000, 6104.000000)">
            <g id="map" transform="translate(715.000000, 179.000000)">
                <g id="Map" transform="translate(0.000000, 10.000000)">
                    <g>
                        <ellipse id="Oval-2-Copy-36" fill="#84E1F0" cx="17.1861386" cy="74.5150602" rx="17.1861386" ry="17.1957831"></ellipse>
                        <ellipse id="Oval-2-Copy-35" fill="#C3EE8A" cx="16.6653465" cy="120.891566" rx="6.24950495" ry="6.25301205"></ellipse>
                        <ellipse id="Oval-2-Copy-97" fill="#D05BC9" cx="27.6019802" cy="100.569277" rx="7.81188119" ry="7.81626506"></ellipse>
                        <ellipse id="Oval-2-Copy-67" fill="#43D1B8" cx="11.9782178" cy="106.822289" rx="6.77029703" ry="6.77409639"></ellipse>
                        <ellipse id="Oval-2-Copy-57" fill="#5CE8CF" cx="24.4772277" cy="132.876506" rx="6.77029703" ry="6.77409639"></ellipse>
                        <ellipse id="Oval-2-Copy-11" fill="#3578E5" cx="5.72871287" cy="95.3584337" rx="4.68712871" ry="4.68975904"></ellipse>
                        <ellipse id="Oval-2-Copy-25" fill="#5E99FA" cx="499.960396" cy="121.933735" rx="11.4574257" ry="11.4638554"></ellipse>
                        <ellipse id="Oval-2-Copy-25" fill="#5E99FA" cx="497.877228" cy="199.054217" rx="11.4574257" ry="11.4638554"></ellipse>
                        <ellipse id="Oval-2-Copy-24" fill="#3578E5" cx="429.132673" cy="215.728916" rx="11.4574257" ry="11.4638554"></ellipse>
                        <ellipse id="Oval-2-Copy-23" fill="#3578E5" cx="464.025743" cy="30.7439759" rx="14.0613861" ry="14.0692771"></ellipse>
                        <ellipse id="Oval-2-Copy-22" fill="#3578E5" cx="181.235644" cy="277.216867" rx="11.4574257" ry="11.4638554"></ellipse>
                        <ellipse id="Oval-2-Copy-22" fill="#5E99FA" cx="278.10297" cy="333.493976" rx="11.4574257" ry="11.4638554"></ellipse>
                        <ellipse id="Oval-2-Copy-21" fill="#5CE8CF" cx="446.839604" cy="232.403614" rx="11.4574257" ry="11.4638554"></ellipse>
                        <ellipse id="Oval-2-Copy-20" fill="#3578E5" cx="229.148515" cy="61.4879518" rx="11.4574257" ry="11.4638554"></ellipse>
                        <ellipse id="Oval-2-Copy-19" fill="#3578E5" cx="439.548515" cy="119.849398" rx="11.4574257" ry="11.4638554"></ellipse>
                        <ellipse id="Oval-2-Copy-18" fill="#5E99FA" cx="202.067327" cy="228.23494" rx="11.4574257" ry="11.4638554"></ellipse>
                        <ellipse id="Oval-2-Copy-17" fill="#3578E5" cx="120.823762" cy="55.2349398" rx="11.4574257" ry="11.4638554"></ellipse>
                        <ellipse id="Oval-2-Copy-50" fill="#00CDED" cx="226.023762" cy="218.855422" rx="9.37425743" ry="9.37951807"></ellipse>
                        <ellipse id="Oval-2-Copy-49" fill="#00CDED" cx="172.90297" cy="202.180723" rx="9.37425743" ry="9.37951807"></ellipse>
                        <ellipse id="Oval-2-Copy-48" fill="#00CDED" cx="165.611881" cy="262.626506" rx="9.37425743" ry="9.37951807"></ellipse>
                        <ellipse id="Oval-2-Copy-48" fill="#00CDED" cx="226.544554" cy="244.388554" rx="5.72871287" ry="5.73192771"></ellipse>
                        <ellipse id="Oval-2-Copy-48" fill="#00CDED" cx="233.314851" cy="314.73494" rx="10.4158416" ry="10.4216867"></ellipse>
                        <ellipse id="Oval-2-Copy-48" fill="#00CDED" cx="373.928713" cy="105.259036" rx="9.37425743" ry="9.37951807"></ellipse>
                        <ellipse id="Oval-2-Copy-47" fill="#00CDED" cx="168.736634" cy="226.150602" rx="9.37425743" ry="9.37951807"></ellipse>
                        <ellipse id="Oval-2-Copy-46" fill="#00CDED" cx="437.465347" cy="157.36747" rx="9.37425743" ry="9.37951807"></ellipse>
                        <ellipse id="Oval-2-Copy-46" fill="#00CDED" cx="328.09901" cy="69.8253012" rx="9.37425743" ry="9.37951807"></ellipse>
                        <ellipse id="Oval-2-Copy-45" fill="#00CDED" cx="190.089109" cy="188.111446" rx="7.81188119" ry="7.81626506"></ellipse>
                        <ellipse id="Oval-2-Copy-45" fill="#84E1F0" cx="198.421782" cy="167.268072" rx="13.019802" ry="13.0271084"></ellipse>
                        <ellipse id="Oval-2-Copy-45" fill="#84E1F0" cx="232.794059" cy="125.581325" rx="9.8950495" ry="9.90060241"></ellipse>
                        <ellipse id="Oval-2-Copy-45" fill="#84E1F0" cx="221.336634" cy="30.7439759" rx="9.8950495" ry="9.90060241"></ellipse>
                        <ellipse id="Oval-2-Copy-45" fill="#84E1F0" cx="354.659406" cy="62.0090361" rx="14.0613861" ry="14.0692771"></ellipse>
                        <ellipse id="Oval-2-Copy-44" fill="#00CDED" cx="252.063366" cy="119.849398" rx="9.37425743" ry="9.37951807"></ellipse>
                        <ellipse id="Oval-2-Copy-43" fill="#00CDED" cx="153.112871" cy="165.704819" rx="8.33267327" ry="8.3373494"></ellipse>
                        <ellipse id="Oval-2-Copy-42" fill="#00CDED" cx="134.364356" cy="223.024096" rx="9.37425743" ry="9.37951807"></ellipse>
                        <ellipse id="Oval-2-Copy-41" fill="#00CDED" cx="114.574257" cy="171.957831" rx="9.37425743" ry="9.37951807"></ellipse>
                        <ellipse id="Oval-2-Copy-39" fill="#00CDED" cx="262.479208" cy="177.168675" rx="9.37425743" ry="9.37951807"></ellipse>
                        <ellipse id="Oval-2-Copy-38" fill="#00CDED" cx="121.865347" cy="131.313253" rx="9.37425743" ry="9.37951807"></ellipse>
                        <ellipse id="Oval-2-Copy-37" fill="#00CDED" cx="231.231683" cy="150.072289" rx="9.37425743" ry="9.37951807"></ellipse>
                        <ellipse id="Oval-2-Copy-35" fill="#00CDED" cx="197.380198" cy="95.3584337" rx="14.0613861" ry="14.0692771"></ellipse>
                        <ellipse id="Oval-2-Copy-35" fill="#C3EE8A" cx="178.631683" cy="144.340361" rx="7.81188119" ry="7.81626506"></ellipse>
                        <ellipse id="Oval-2-Copy-35" fill="#C3EE8A" cx="192.693069" cy="205.307229" rx="8.33267327" ry="8.3373494"></ellipse>
                        <ellipse id="Oval-2-Copy-35" fill="#C3EE8A" cx="322.891089" cy="91.7108434" rx="12.4990099" ry="12.5060241"></ellipse>
                        <ellipse id="Oval-2-Copy-35" fill="#C3EE8A" cx="374.970297" cy="71.9096386" rx="6.24950495" ry="6.25301205"></ellipse>
                        <ellipse id="Oval-2-Copy-35" fill="#C3EE8A" cx="132.281188" cy="163.620482" rx="8.33267327" ry="8.3373494"></ellipse>
                        <ellipse id="Oval-2-Copy-34" fill="#00CDED" cx="167.174257" cy="122.454819" rx="16.1445545" ry="16.1536145"></ellipse>
                        <ellipse id="Oval-2-Copy-33" fill="#00CDED" cx="310.392079" cy="43.7710843" rx="9.37425743" ry="9.37951807"></ellipse>
                        <ellipse id="Oval-2-Copy-33" fill="#00CDED" cx="371.845545" cy="41.686747" rx="9.37425743" ry="9.37951807"></ellipse>
                        <ellipse id="Oval-2-Copy-33" fill="#00CDED" cx="263.520792" cy="9.37951807" rx="9.37425743" ry="9.37951807"></ellipse>
                        <ellipse id="Oval-2-Copy-32" fill="#00CDED" cx="146.863366" cy="41.686747" rx="9.37425743" ry="9.37951807"></ellipse>
                        <ellipse id="Oval-2-Copy-31" fill="#00CDED" cx="80.2019802" cy="109.427711" rx="9.37425743" ry="9.37951807"></ellipse>
                        <ellipse id="Oval-2-Copy-30" fill="#00CDED" cx="257.271287" cy="85.4578313" rx="9.37425743" ry="9.37951807"></ellipse>
                        <ellipse id="Oval-2-Copy-29" fill="#00CDED" cx="210.4" cy="47.939759" rx="9.37425743" ry="9.37951807"></ellipse>
                        <ellipse id="Oval-2-Copy-28" fill="#00CDED" cx="137.489109" cy="91.7108434" rx="9.37425743" ry="9.37951807"></ellipse>
                        <ellipse id="Oval-2-Copy-99" fill="#43D1B8" cx="231.752475" cy="332.972892" rx="6.77029703" ry="6.77409639"></ellipse>
                        <ellipse id="Oval-2-Copy-99" fill="#43D1B8" cx="485.89901" cy="22.4066265" rx="6.77029703" ry="6.77409639"></ellipse>
                        <ellipse id="Oval-2-Copy-98" fill="#5CE8CF" cx="245.293069" cy="72.4307229" rx="6.77029703" ry="6.77409639"></ellipse>
                        <ellipse id="Oval-2-Copy-98" fill="#5CE8CF" cx="499.439604" cy="157.888554" rx="6.77029703" ry="6.77409639"></ellipse>
                        <ellipse id="Oval-2-Copy-97" fill="#D05BC9" cx="224.982178" cy="174.042169" rx="12.4990099" ry="12.5060241"></ellipse>
                        <ellipse id="Oval-2-Copy-97" fill="#D05BC9" cx="252.063366" cy="331.409639" rx="12.4990099" ry="12.5060241"></ellipse>
                        <ellipse id="Oval-2-Copy-97" fill="#D05BC9" cx="142.176238" cy="122.454819" rx="7.81188119" ry="7.81626506"></ellipse>
                        <ellipse id="Oval-2-Copy-97" fill="#D05BC9" cx="263" cy="157.888554" rx="7.81188119" ry="7.81626506"></ellipse>
                        <ellipse id="Oval-2-Copy-97" fill="#D05BC9" cx="200.50495" cy="19.2801205" rx="13.019802" ry="13.0271084"></ellipse>
                        <ellipse id="Oval-2-Copy-97" fill="#D05BC9" cx="123.427723" cy="35.9548193" rx="6.77029703" ry="6.77409639"></ellipse>
                        <ellipse id="Oval-2-Copy-96" fill="#43D1B8" cx="219.253465" cy="10.9427711" rx="6.77029703" ry="6.77409639"></ellipse>
                        <ellipse id="Oval-2-Copy-95" fill="#43D1B8" cx="196.338614" cy="266.274096" rx="6.77029703" ry="6.77409639"></ellipse>
                        <ellipse id="Oval-2-Copy-94" fill="#5CE8CF" cx="214.045545" cy="294.412651" rx="6.77029703" ry="6.77409639"></ellipse>
                        <ellipse id="Oval-2-Copy-92" fill="#5CE8CF" cx="300.49703" cy="80.7680723" rx="10.9366337" ry="10.9427711"></ellipse>
                        <ellipse id="Oval-2-Copy-91" fill="#C3EE8A" cx="235.39802" cy="12.5060241" rx="8.33267327" ry="8.3373494"></ellipse>
                        <ellipse id="Oval-2-Copy-90" fill="#778FFF" cx="208.316832" cy="190.716867" rx="9.37425743" ry="9.37951807"></ellipse>
                        <ellipse id="Oval-2-Copy-90" fill="#778FFF" cx="228.106931" cy="290.76506" rx="7.29108911" ry="7.29518072"></ellipse>
                        <ellipse id="Oval-2-Copy-90" fill="#778FFF" cx="352.055446" cy="36.4759036" rx="9.37425743" ry="9.37951807"></ellipse>
                        <ellipse id="Oval-2-Copy-90" fill="#778FFF" cx="295.809901" cy="58.3614458" rx="9.37425743" ry="9.37951807"></ellipse>
                        <ellipse id="Oval-2-Copy-90" fill="#778FFF" cx="205.192079" cy="63.5722892" rx="5.20792079" ry="5.21084337"></ellipse>
                        <ellipse id="Oval-2-Copy-90" fill="#778FFF" cx="192.693069" cy="38.560241" rx="6.24950495" ry="6.25301205"></ellipse>
                        <ellipse id="Oval-2-Copy-90" fill="#778FFF" cx="255.188119" cy="105.259036" rx="5.20792079" ry="5.21084337"></ellipse>
                        <ellipse id="Oval-2-Copy-90" fill="#778FFF" cx="344.764356" cy="83.373494" rx="9.37425743" ry="9.37951807"></ellipse>
                        <ellipse id="Oval-2-Copy-90" fill="#778FFF" cx="262.479208" cy="140.692771" rx="6.24950495" ry="6.25301205"></ellipse>
                        <ellipse id="Oval-2-Copy-90" fill="#778FFF" cx="176.548515" cy="99.5271084" rx="6.77029703" ry="6.77409639"></ellipse>
                        <ellipse id="Oval-2-Copy-90" fill="#778FFF" cx="250.50099" cy="25.5331325" rx="10.9366337" ry="10.9427711"></ellipse>
                        <ellipse id="Oval-2-Copy-90" fill="#778FFF" cx="184.881188" cy="220.418675" rx="6.77029703" ry="6.77409639"></ellipse>
                        <ellipse id="Oval-2-Copy-90" fill="#778FFF" cx="249.459406" cy="151.635542" rx="6.77029703" ry="6.77409639"></ellipse>
                        <ellipse id="Oval-2-Copy-90" fill="#778FFF" cx="144.259406" cy="67.2198795" rx="14.0613861" ry="14.0692771"></ellipse>
                        <ellipse id="Oval-2-Copy-90" fill="#778FFF" cx="58.3287129" cy="80.246988" rx="9.37425743" ry="9.37951807"></ellipse>
                        <ellipse id="Oval-2-Copy-89" fill="#43D1B8" cx="241.126733" cy="297.539157" rx="6.77029703" ry="6.77409639"></ellipse>
                        <ellipse id="Oval-2-Copy-88" fill="#43D1B8" cx="148.425743" cy="262.105422" rx="6.77029703" ry="6.77409639"></ellipse>
                        <ellipse id="Oval-2-Copy-87" fill="#43D1B8" cx="364.033663" cy="80.7680723" rx="6.77029703" ry="6.77409639"></ellipse>
                        <ellipse id="Oval-2-Copy-86" fill="#5CE8CF" cx="310.912871" cy="23.4487952" rx="8.85346535" ry="8.85843373"></ellipse>
                        <ellipse id="Oval-2-Copy-85" fill="#5CE8CF" cx="253.10495" cy="262.626506" rx="10.4158416" ry="10.4216867"></ellipse>
                        <ellipse id="Oval-2-Copy-84" fill="#5CE8CF" cx="149.988119" cy="240.740964" rx="13.5405941" ry="13.5481928"></ellipse>
                        <ellipse id="Oval-2-Copy-84" fill="#D05BC9" cx="219.774257" cy="233.445783" rx="5.20792079" ry="5.21084337"></ellipse>
                        <ellipse id="Oval-2-Copy-84" fill="#D05BC9" cx="178.110891" cy="161.536145" rx="5.20792079" ry="5.21084337"></ellipse>
                        <ellipse id="Oval-2-Copy-84" fill="#D05BC9" cx="332.265347" cy="23.9698795" rx="10.4158416" ry="10.4216867"></ellipse>
                        <ellipse id="Oval-2-Copy-84" fill="#D05BC9" cx="152.071287" cy="214.686747" rx="9.37425743" ry="9.37951807"></ellipse>
                        <ellipse id="Oval-2-Copy-84" fill="#D05BC9" cx="303.10099" cy="100.048193" rx="7.29108911" ry="7.29518072"></ellipse>
                        <ellipse id="Oval-2-Copy-84" fill="#D05BC9" cx="116.657426" cy="224.066265" rx="5.20792079" ry="5.21084337"></ellipse>
                        <ellipse id="Oval-2-Copy-82" fill="#43D1B8" cx="243.209901" cy="165.183735" rx="6.77029703" ry="6.77409639"></ellipse>
                        <ellipse id="Oval-2-Copy-81" fill="#43D1B8" cx="64.0574257" cy="99.5271084" rx="6.77029703" ry="6.77409639"></ellipse>
                        <ellipse id="Oval-2-Copy-80" fill="#43D1B8" cx="218.732673" cy="201.138554" rx="4.16633663" ry="4.1686747"></ellipse>
                        <ellipse id="Oval-2-Copy-80" fill="#43D1B8" cx="442.673267" cy="267.837349" rx="4.16633663" ry="4.1686747"></ellipse>
                        <ellipse id="Oval-2-Copy-80" fill="#84E1F0" cx="209.879208" cy="209.996988" rx="7.81188119" ry="7.81626506"></ellipse>
                        <ellipse id="Oval-2-Copy-18" fill="#00CDED" cx="403.613861" cy="267.316265" rx="17.1861386" ry="17.1957831"></ellipse>
                        <ellipse id="Oval-2-Copy-50" fill="#00CDED" cx="430.174257" cy="248.036145" rx="9.37425743" ry="9.37951807"></ellipse>
                        <ellipse id="Oval-2-Copy-80" fill="#43D1B8" cx="421.841584" cy="234.487952" rx="4.16633663" ry="4.1686747"></ellipse>
                        <ellipse id="Oval-2-Copy-80" fill="#43D1B8" cx="417.675248" cy="186.548193" rx="4.16633663" ry="4.1686747"></ellipse>
                        <ellipse id="Oval-2-Copy-80" fill="#84E1F0" cx="412.988119" cy="243.346386" rx="7.81188119" ry="7.81626506"></ellipse>
                        <ellipse id="Oval-2-Copy-78" fill="#778FFF" cx="141.655446" cy="189.674699" rx="16.6653465" ry="16.6746988"></ellipse>
                        <ellipse id="Oval-2-Copy-78" fill="#778FFF" cx="260.916832" cy="304.834337" rx="13.019802" ry="13.0271084"></ellipse>
                        <ellipse id="Oval-2-Copy-77" fill="#C3EE8A" cx="123.427723" cy="209.996988" rx="6.77029703" ry="6.77409639"></ellipse>
                        <ellipse id="Oval-2-Copy-76" fill="#5CE8CF" cx="257.792079" cy="41.1656627" rx="6.77029703" ry="6.77409639"></ellipse>
                        <ellipse id="Oval-2-Copy-75" fill="#5CE8CF" cx="170.29901" cy="179.774096" rx="11.9782178" ry="11.9849398"></ellipse>
                        <ellipse id="Oval-2-Copy-74" fill="#43D1B8" cx="377.574257" cy="57.8403614" rx="6.77029703" ry="6.77409639"></ellipse>
                        <ellipse id="Oval-2-Copy-72" fill="#43D1B8" cx="192.172277" cy="54.7138554" rx="6.77029703" ry="6.77409639"></ellipse>
                        <ellipse id="Oval-2-Copy-71" fill="#70E0F2" cx="118.219802" cy="149.551205" rx="6.77029703" ry="6.77409639"></ellipse>
                        <ellipse id="Oval-2-Copy-71" fill="#70E0F2" cx="209.879208" cy="76.5993976" rx="6.77029703" ry="6.77409639"></ellipse>
                        <ellipse id="Oval-2-Copy-71" fill="#70E0F2" cx="179.673267" cy="46.376506" rx="6.77029703" ry="6.77409639"></ellipse>
                        <ellipse id="Oval-2-Copy-71" fill="#70E0F2" cx="201.546535" cy="282.948795" rx="8.85346535" ry="8.85843373"></ellipse>
                        <ellipse id="Oval-2-Copy-71" fill="#70E0F2" cx="282.790099" cy="313.171687" rx="8.85346535" ry="8.85843373"></ellipse>
                        <ellipse id="Oval-2-Copy-70" fill="#43D1B8" cx="247.376238" cy="184.98494" rx="6.77029703" ry="6.77409639"></ellipse>
                        <ellipse id="Oval-2-Copy-69" fill="#43D1B8" cx="213.00396" cy="152.677711" rx="6.77029703" ry="6.77409639"></ellipse>
                        <ellipse id="Oval-2-Copy-66" fill="#5CE8CF" cx="112.491089" cy="105.259036" rx="16.6653465" ry="16.6746988"></ellipse>
                        <ellipse id="Oval-2-Copy-65" fill="#43D1B8" cx="247.376238" cy="136.003012" rx="6.77029703" ry="6.77409639"></ellipse>
                        <ellipse id="Oval-2-Copy-64" fill="#43D1B8" cx="165.091089" cy="154.762048" rx="6.77029703" ry="6.77409639"></ellipse>
                        <ellipse id="Oval-2-Copy-63" fill="#43D1B8" cx="104.679208" cy="157.888554" rx="6.77029703" ry="6.77409639"></ellipse>
                        <ellipse id="Oval-2-Copy-62" fill="#43D1B8" cx="190.089109" cy="118.286145" rx="6.77029703" ry="6.77409639"></ellipse>
                        <ellipse id="Oval-2-Copy-61" fill="#43D1B8" cx="85.9306931" cy="127.665663" rx="6.77029703" ry="6.77409639"></ellipse>
                        <ellipse id="Oval-2-Copy-60" fill="#43D1B8" cx="291.122772" cy="165.183735" rx="6.77029703" ry="6.77409639"></ellipse>
                        <ellipse id="Oval-2-Copy-59" fill="#43D1B8" cx="315.079208" cy="112.033133" rx="6.77029703" ry="6.77409639"></ellipse>
                        <ellipse id="Oval-2-Copy-58" fill="#43D1B8" cx="310.912871" cy="65.1355422" rx="6.77029703" ry="6.77409639"></ellipse>
                        <ellipse id="Oval-2-Copy-56" fill="#43D1B8" cx="56.7663366" cy="115.159639" rx="6.77029703" ry="6.77409639"></ellipse>
                        <ellipse id="Oval-2-Copy-55" fill="#43D1B8" cx="218.211881" cy="91.189759" rx="6.77029703" ry="6.77409639"></ellipse>
                        <ellipse id="Oval-2-Copy-54" fill="#43D1B8" cx="193.213861" cy="71.3885542" rx="6.77029703" ry="6.77409639"></ellipse>
                        <ellipse id="Oval-2-Copy-53" fill="#43D1B8" cx="148.425743" cy="107.864458" rx="6.77029703" ry="6.77409639"></ellipse>
                        <ellipse id="Oval-2-Copy-52" fill="#43D1B8" cx="102.59604" cy="62.0090361" rx="6.77029703" ry="6.77409639"></ellipse>
                        <ellipse id="Oval-2-Copy-51" fill="#43D1B8" cx="42.1841584" cy="76.5993976" rx="6.77029703" ry="6.77409639"></ellipse>
                        <ellipse id="Oval-2-Copy-27" fill="#00CDED" cx="46.8712871" cy="95.8795181" rx="9.37425743" ry="9.37951807"></ellipse>
                        <ellipse id="Oval-2-Copy-26" fill="#00CDED" cx="114.574257" cy="78.1626506" rx="9.37425743" ry="9.37951807"></ellipse>
                        <ellipse id="Oval-2-Copy-16" fill="#3578E5" cx="37.4970297" cy="117.76506" rx="11.4574257" ry="11.4638554"></ellipse>
                        <ellipse id="Oval-2-Copy-15" fill="#3578E5" cx="101.033663" cy="138.608434" rx="11.4574257" ry="11.4638554"></ellipse>
                        <ellipse id="Oval-2-Copy-38" fill="#00CDED" cx="486.419802" cy="316.819277" rx="9.37425743" ry="9.37951807"></ellipse>
                        <ellipse id="Oval-2-Copy-71" fill="#70E0F2" cx="423.40396" cy="285.033133" rx="6.77029703" ry="6.77409639"></ellipse>
                        <ellipse id="Oval-2-Copy-63" fill="#43D1B8" cx="409.863366" cy="293.370482" rx="6.77029703" ry="6.77409639"></ellipse>
                        <ellipse id="Oval-2-Copy-15" fill="#3578E5" cx="501.522772" cy="307.960843" rx="7.81188119" ry="7.81626506"></ellipse>
                        <ellipse id="Oval-2-Copy-13" fill="#5E99FA" cx="392.677228" cy="239.698795" rx="11.4574257" ry="11.4638554"></ellipse>
                        <ellipse id="Oval-2-Copy-12" fill="#5E99FA" cx="85.9306931" cy="80.7680723" rx="18.2277228" ry="18.2379518"></ellipse>
                        <ellipse id="Oval-2-Copy-11" fill="#3578E5" cx="171.861386" cy="204.26506" rx="11.4574257" ry="11.4638554"></ellipse>
                        <ellipse id="Oval-2-Copy-11" fill="#3578E5" cx="94.2633663" cy="117.243976" rx="4.68712871" ry="4.68975904"></ellipse>
                        <ellipse id="Oval-2-Copy-10" fill="#778FFF" cx="421.841584" cy="171.957831" rx="9.37425743" ry="9.37951807"></ellipse>
                        <ellipse id="Oval-2-Copy-9" fill="#5E99FA" cx="459.338614" cy="106.301205" rx="11.4574257" ry="11.4638554"></ellipse>
                        <ellipse id="Oval-2-Copy-8" fill="#5E99FA" cx="235.39802" cy="199.054217" rx="11.4574257" ry="11.4638554"></ellipse>
                        <ellipse id="Oval-2-Copy-7" fill="#3578E5" cx="143.217822" cy="144.340361" rx="13.019802" ry="13.0271084"></ellipse>
                        <ellipse id="Oval-2-Copy-43" fill="#00CDED" cx="455.172277" cy="133.39759" rx="8.33267327" ry="8.3373494"></ellipse>
                        <ellipse id="Oval-2-Copy-35" fill="#3578E5" cx="413.508911" cy="138.608434" rx="9.37425743" ry="9.37951807"></ellipse>
                        <ellipse id="Oval-2-Copy-35" fill="#C3EE8A" cx="408.30099" cy="224.066265" rx="9.37425743" ry="9.37951807"></ellipse>
                        <ellipse id="Oval-2-Copy-35" fill="#C3EE8A" cx="497.877228" cy="230.319277" rx="8.33267327" ry="8.3373494"></ellipse>
                        <ellipse id="Oval-2-Copy-34" fill="#00CDED" cx="400.489109" cy="198.533133" rx="16.1445545" ry="16.1536145"></ellipse>
                        <ellipse id="Oval-2-Copy-34" fill="#70E0F2" cx="485.89901" cy="97.4427711" rx="16.1445545" ry="16.1536145"></ellipse>
                        <ellipse id="Oval-2-Copy-97" fill="#D05BC9" cx="408.821782" cy="155.804217" rx="7.81188119" ry="7.81626506"></ellipse>
                        <ellipse id="Oval-2-Copy-97" fill="#D05BC9" cx="379.657426" cy="257.936747" rx="7.81188119" ry="7.81626506"></ellipse>
                        <ellipse id="Oval-2-Copy-97" fill="#D05BC9" cx="497.356436" cy="334.01506" rx="7.81188119" ry="7.81626506"></ellipse>
                        <ellipse id="Oval-2-Copy-97" fill="#D05BC9" cx="485.89901" cy="164.141566" rx="7.81188119" ry="7.81626506"></ellipse>
                        <ellipse id="Oval-2-Copy-90" fill="#778FFF" cx="448.40198" cy="188.111446" rx="5.72871287" ry="5.73192771"></ellipse>
                        <ellipse id="Oval-2-Copy-90" fill="#70E0F2" cx="455.693069" cy="196.448795" rx="4.68712871" ry="4.68975904"></ellipse>
                        <ellipse id="Oval-2-Copy-90" fill="#70E0F2" cx="407.780198" cy="177.689759" rx="4.68712871" ry="4.68975904"></ellipse>
                        <ellipse id="Oval-2-Copy-78" fill="#C3EE8A" cx="461.942574" cy="161.01506" rx="15.1029703" ry="15.1114458"></ellipse>
                        <ellipse id="Oval-2-Copy-78" fill="#778FFF" cx="473.4" cy="236.051205" rx="15.1029703" ry="15.1114458"></ellipse>
                        <ellipse id="Oval-2-Copy-75" fill="#5CE8CF" cx="483.815842" cy="142.256024" rx="11.9782178" ry="11.9849398"></ellipse>
                        <ellipse id="Oval-2-Copy-64" fill="#43D1B8" cx="443.194059" cy="174.563253" rx="6.77029703" ry="6.77409639"></ellipse>
                        <ellipse id="Oval-2-Copy-46" fill="#00CDED" cx="497.877228" cy="253.246988" rx="13.5405941" ry="13.5481928"></ellipse>
                        <ellipse id="Oval-2-Copy-90" fill="#778FFF" cx="429.132673" cy="265.753012" rx="7.29108911" ry="7.29518072"></ellipse>
                        <ellipse id="Oval-2-Copy-64" fill="#43D1B8" cx="449.443564" cy="312.129518" rx="6.77029703" ry="6.77409639"></ellipse>
                        <ellipse id="Oval-2-Copy-62" fill="#43D1B8" cx="397.364356" cy="148.509036" rx="4.68712871" ry="4.68975904"></ellipse>
                        <ellipse id="Oval-2-Copy-7" fill="#3578E5" cx="476.524752" cy="186.027108" rx="13.019802" ry="13.0271084"></ellipse>
                        <ellipse id="Oval-2-Copy-6" fill="#3578E5" cx="160.40396" cy="88.5843373" rx="11.4574257" ry="11.4638554"></ellipse>
                        <ellipse id="Oval-2-Copy-5" fill="#3578E5" cx="331.223762" cy="47.939759" rx="11.4574257" ry="11.4638554"></ellipse>
                        <ellipse id="Oval-2-Copy-46" fill="#00CDED" cx="455.172277" cy="333.493976" rx="9.37425743" ry="9.37951807"></ellipse>
                        <ellipse id="Oval-2-Copy-45" fill="#84E1F0" cx="478.607921" cy="295.454819" rx="14.0613861" ry="14.0692771"></ellipse>
                        <ellipse id="Oval-2-Copy-33" fill="#70E0F2" cx="493.710891" cy="276.174699" rx="9.37425743" ry="9.37951807"></ellipse>
                        <ellipse id="Oval-2-Copy-90" fill="#778FFF" cx="474.962376" cy="265.753012" rx="9.37425743" ry="9.37951807"></ellipse>
                        <ellipse id="Oval-2-Copy-90" fill="#778FFF" cx="466.629703" cy="316.819277" rx="9.37425743" ry="9.37951807"></ellipse>
                        <ellipse id="Oval-2-Copy-84" fill="#D05BC9" cx="454.130693" cy="257.415663" rx="10.4158416" ry="10.4216867"></ellipse>
                        <ellipse id="Oval-2-Copy-74" fill="#43D1B8" cx="500.481188" cy="292.328313" rx="6.77029703" ry="6.77409639"></ellipse>
                        <ellipse id="Oval-2-Copy-38" fill="#C3EE8A" cx="474.962376" cy="336.620482" rx="9.37425743" ry="9.37951807"></ellipse>
                        <ellipse id="Oval-2-Copy-5" fill="#3578E5" cx="448.40198" cy="288.159639" rx="16.1445545" ry="16.1536145"></ellipse>
                        <ellipse id="Oval-2-Copy-5" fill="#5E99FA" cx="283.310891" cy="31.2650602" rx="18.7485149" ry="18.7590361"></ellipse>
                        <ellipse id="Oval-2-Copy-4" fill="#5E99FA" cx="281.227723" cy="149.03012" rx="11.4574257" ry="11.4638554"></ellipse>
                        <ellipse id="Oval-2-Copy-3" fill="#3578E5" cx="237.481188" cy="104.216867" rx="11.4574257" ry="11.4638554"></ellipse>
                        <ellipse id="Oval-2-Copy" fill="#5E99FA" cx="197.90099" cy="142.777108" rx="9.37425743" ry="9.37951807"></ellipse>
                        <ellipse id="Oval-2" fill="#5E99FA" cx="112.491089" cy="193.843373" rx="11.4574257" ry="11.4638554"></ellipse>
                    </g>
                </g>
            </g>
        </g>
    </g>
</svg>