<?xml version="1.0" encoding="UTF-8"?>
<svg width="36px" height="36px" viewBox="0 0 36 36" version="1.1" xmlns="http://www.w3.org/2000/svg" xmlns:xlink="http://www.w3.org/1999/xlink">
    <!-- Generator: Sketch 48.1 (47250) - http://www.bohemiancoding.com/sketch -->
    <title>experienced icon</title>
    <desc>Created with Sketch.</desc>
    <defs></defs>
    <g id="Cleaning" stroke="none" stroke-width="1" fill="none" fill-rule="evenodd" transform="translate(-283.000000, -1308.000000)">
        <g id="experience-icon" transform="translate(283.000000, 1308.000000)" stroke="#434343">
            <g id="experienced-icon" transform="translate(4.500000, 0.500000)">
                <g>
                    <path d="M6.325,15.325 L6.325,34.112934 C6.325,34.1729994 6.34303047,34.2316818 6.37675727,34.2813844 C6.46978987,34.4184851 6.65634975,34.4542093 6.79345043,34.3611767 L12.5454476,30.4580358 C13.121739,30.0669809 13.878261,30.0669809 14.4545524,30.4580358 L20.2065496,34.3611767 C20.2562522,34.3949035 20.3149346,34.412934 20.375,34.412934 C20.5406854,34.412934 20.675,34.2786194 20.675,34.112934 L20.675,15.325 L6.325,15.325 Z" id="Rectangle-19" stroke-width="1.4"></path>
                    <path d="M13.5,26.4375 L13.5,29.8125" id="Line" stroke-linecap="square"></path>
                    <polygon id="Star-3" stroke-width="1.5" fill="#FFFFFF" stroke-linejoin="round" points="13.5 25.3403349 9.22098678 27.0166262 6.74449168 23.1453372 2.29739795 21.9863445 2.56935793 17.3987586 -0.347177654 13.8471777 2.56935793 10.2955968 2.29739795 5.70801084 6.74449168 4.54901814 9.22098678 0.677729114 13.5 2.35402043 17.7790132 0.677729114 20.2555083 4.54901814 24.702602 5.70801084 24.4306421 10.2955968 27.3471777 13.8471777 24.4306421 17.3987586 24.702602 21.9863445 20.2555083 23.1453372 17.7790132 27.0166262"></polygon>
                    <polygon id="Star-3" stroke-width="1.4" stroke-linejoin="round" points="13.5803531 21.3036501 10.7581985 22.4092212 9.12486581 19.8559746 6.19185639 19.0915795 6.37122323 16.0659107 4.44766891 13.7235224 6.37122323 11.3811341 6.19185639 8.35546532 9.12486581 7.59107025 10.7581985 5.03782359 13.5803531 6.14339468 16.4025077 5.03782359 18.0358404 7.59107025 20.9688498 8.35546532 20.789483 11.3811341 22.7130373 13.7235224 20.789483 16.0659107 20.9688498 19.0915795 18.0358404 19.8559746 16.4025077 22.4092212"></polygon>
                </g>
            </g>
        </g>
    </g>
</svg>