<?xml version="1.0" encoding="UTF-8"?>
<svg width="36px" height="36px" viewBox="0 0 36 36" version="1.1" xmlns="http://www.w3.org/2000/svg" xmlns:xlink="http://www.w3.org/1999/xlink">
    <!-- Generator: Sketch 48.1 (47250) - http://www.bohemiancoding.com/sketch -->
    <title>reliable icon@2x</title>
    <desc>Created with Sketch.</desc>
    <defs></defs>
    <g id="Cleaning" stroke="none" stroke-width="1" fill="none" fill-rule="evenodd" transform="translate(-752.000000, -1308.000000)">
        <g id="reliable-icon" transform="translate(752.000000, 1308.000000)">
            <g transform="translate(3.500000, 0.500000)">
                <g>
                    <g id="Protection-Plan" transform="translate(10.000000, 15.000000)" stroke="#434343" stroke-linecap="round" stroke-width="1.5">
                        <path d="M0.959281649,2.95928165 L4.04950976,6.04950976" id="Line-6"></path>
                        <path d="M9.5,0.5 L4.04950976,6.04950976" id="Line-6"></path>
                    </g>
                    <path d="M28.7202258,17.16075 C28.7712258,18.07075 29.3622258,33.22675 14.4592258,34.73975 C14.4292258,34.74275 14.3982258,34.74475 14.3672258,34.74475 C14.3372258,34.74475 14.3062258,34.74275 14.2762258,34.73975 C-0.626774246,33.22675 -0.0347742455,18.07075 0.0152257545,17.16075 L0.0152257545,6.03175 C0.0152257545,5.57175 0.360225754,5.18575 0.818225754,5.13375 C9.48022575,4.15275 13.7082258,0.28275 13.7502258,0.24375 C14.0972258,-0.08125 14.6372258,-0.08125 14.9852258,0.24375 C15.0252258,0.28075 19.3032258,4.15875 27.9182258,5.13375 C28.3762258,5.18575 28.7202258,5.57175 28.7202258,6.03175 L28.7202258,17.16075 Z M14.3690002,32.9799976 C28.1173811,31.5455765 27.2594511,17.7851995 27.2154284,17.1983451 C27.2133808,17.1761996 27.212357,17.1540542 27.212357,17.1319087 L27.212357,6.70643508 C20.1021846,5.75418076 15.8821513,3.0594822 14.3690002,1.91999817 C12.855849,3.0594822 8.63683954,5.75418076 1.52666708,6.70643508 L1.52666708,17.1319087 C1.52666708,17.1540542 1.52666708,17.1761996 1.52461951,17.1993517 C1.48059685,17.7851995 0.621642969,31.5455765 14.3690002,32.9799976 Z" id="Combined-Shape" fill="#434B4D"></path>
                    <path d="M14.3664345,29.565635 C4.1440409,28.4808189 4.78275018,18.0741969 4.81548498,17.6311352 C4.81700753,17.6136259 4.81700753,17.5968778 4.81700753,17.5801298 L4.81700753,9.6956101 C10.1040587,8.97544446 13.2412708,6.9375127 14.3664345,6.07575 C15.4915981,6.9375127 18.6295715,8.97544446 23.9166227,9.6956101 L23.9166227,17.5801298 C23.9166227,17.5968778 23.917384,17.6136259 23.9189065,17.6303739 C23.9516413,18.0741969 24.5895893,28.4808189 14.3664345,29.565635 Z" id="Path" stroke="#434343" stroke-width="1.4"></path>
                </g>
            </g>
        </g>
    </g>
</svg>