<?xml version="1.0" encoding="UTF-8"?>
<svg width="36px" height="36px" viewBox="0 0 36 36" version="1.1" xmlns="http://www.w3.org/2000/svg" xmlns:xlink="http://www.w3.org/1999/xlink">
    <!-- Generator: Sketch 48.1 (47250) - http://www.bohemiancoding.com/sketch -->
    <title>handyman_icon@1x</title>
    <desc>Created with Sketch.</desc>
    <defs></defs>
    <g id="Furniture" stroke="none" stroke-width="1" fill="none" fill-rule="evenodd" transform="translate(-243.000000, -1927.000000)">
        <g id="Handyman-Icon" transform="translate(243.000000, 1927.000000)" fill="#434B4D">
            <path d="M30.3821934,16.092267 C30.2429151,16.0695277 30.099847,16.0562631 29.9596213,16.0562631 C29.9245649,16.0562631 29.8904559,16.0628954 29.8553995,16.0638428 C29.3447125,16.7346524 28.7155917,17.3012401 27.9604573,17.697283 C27.9983561,23.8264735 26.6339978,28.2549533 23.8939114,30.8652362 C21.1263483,33.5039432 17.8452559,33.2774976 17.8158843,33.2793925 C17.793145,33.2765501 17.7694583,33.2756026 17.7438765,33.2756026 C17.7201898,33.2756026 17.694608,33.2765501 17.6718687,33.278445 C17.6387073,33.28034 14.3614048,33.5039432 11.5919468,30.8661836 C8.8480705,28.2511634 7.48276466,23.8103664 7.52255844,17.697283 C6.76931893,17.3002926 6.1411456,16.7346524 5.63140615,16.0647903 C5.59729719,16.0628954 5.56318823,16.0572105 5.52907927,16.0572105 C5.38601114,16.0572105 5.24578542,16.0695277 5.10461223,16.092267 C3.73172662,16.3243974 2.80415242,17.63096 3.03533537,19.0028981 L3.67866824,22.824049 C3.88521694,24.0443918 4.93217249,24.9302773 6.16862226,24.9302773 C6.29274097,24.9302773 6.42159704,24.9170127 6.55045311,24.8980633 C7.29327044,27.9669221 8.59414824,30.3886582 10.4426643,32.1367424 C13.5721613,35.0956946 17.1687616,35.0217918 17.7419816,34.9905253 C17.8101995,34.9943152 17.9172638,35 18.0603319,35 C19.1489762,35 22.2775257,34.7498676 25.0450887,32.1367424 C26.8926574,30.3886582 28.1916402,27.9650272 28.9344576,24.8980633 C29.0642611,24.9170127 29.1921697,24.9302773 29.3200783,24.9302773 C30.5555806,24.9302773 31.6006412,24.0443918 31.8071899,22.8231016 L32.4514702,19.0028981 C32.6836007,17.6319075 31.755079,16.3253449 30.3821934,16.092267 Z M5.36990413,22.5398077 L4.72467632,18.7186568 C4.6498261,18.2771353 4.9482795,17.8564581 5.38980102,17.7816079 C5.43622711,17.7730807 5.48265319,17.7711857 5.52907927,17.7711857 C5.6266688,17.7711857 5.72236338,17.7882402 5.80953072,17.8204542 C5.80574083,19.7760346 5.9412292,21.5705448 6.21410087,23.2115647 C5.79626612,23.2380939 5.43812205,22.9462728 5.36990413,22.5398077 Z M30.7621293,18.7186568 L30.1197439,22.5379128 C30.049631,22.9453253 29.6867496,23.236199 29.2736522,23.2115647 C29.5446289,21.5714923 29.6801173,19.7750871 29.6744325,17.8204542 C29.7634948,17.7882402 29.8582419,17.7702383 29.9596213,17.7702383 C30.0041524,17.7702383 30.049631,17.7730807 30.0951096,17.7806604 C30.5375786,17.8564581 30.837927,18.2771353 30.7621293,18.7186568 Z M14.3017141,28.2170545 C15.1506482,28.7883795 16.4041524,29.1162045 17.7419816,29.1162045 C19.0788633,29.1162045 20.333315,28.7883795 21.1831966,28.2170545 C21.5754496,27.95271 21.6796714,27.4202313 21.415327,27.0279783 C21.15193,26.6357252 20.6194513,26.5305559 20.2262508,26.7949004 C19.6606106,27.1767312 18.7320889,27.4041243 17.7419816,27.4041243 C16.7509268,27.4041243 15.8243001,27.1767312 15.2596073,26.7958478 C14.8673543,26.5305559 14.3348756,26.6347778 14.0695837,27.0270308 C13.8061867,27.4192838 13.909461,27.95271 14.3017141,28.2170545 Z M24.003818,20.6448655 C24.003818,19.8414101 23.3529054,19.1914449 22.5494499,19.1914449 C21.7478894,19.1914449 21.0950818,19.8414101 21.0950818,20.6448655 C21.0950818,21.448321 21.7478894,22.1001811 22.5494499,22.1001811 C23.3529054,22.1001811 24.003818,21.448321 24.003818,20.6448655 Z M12.9373557,19.1914449 C12.1339002,19.1914449 11.4820401,19.8414101 11.4820401,20.6448655 C11.4820401,21.448321 12.1339002,22.0992337 12.9373557,22.0992337 C13.7398637,22.0992337 14.3926713,21.448321 14.3926713,20.6448655 C14.3926713,19.8414101 13.7398637,19.1914449 12.9373557,19.1914449 Z M10.0854677,16.3850355 C10.8661839,16.3850355 11.7283826,16.156695 12.6464821,15.7085412 C14.221179,14.9401421 15.9834753,14.533677 17.7419816,14.533677 C19.5023829,14.533677 21.2637316,14.9401421 22.8384286,15.7094886 C23.758423,16.156695 24.6206217,16.3850355 25.4013379,16.3850355 C28.346078,16.3850355 29.3864013,13.2555385 29.5256795,11.6003065 L29.5275745,9.60493242 C29.5275745,5.0210673 24.2444757,1 18.2223494,1 L17.2625612,1 C11.240435,1 5.95828368,5.0210673 5.95828368,9.60493242 L5.95828368,11.5292462 L5.96207356,11.6003065 C6.09945687,13.2555385 7.14072759,16.3850355 10.0854677,16.3850355 Z M25.4013379,14.6720078 C24.8830712,14.6720078 24.2747948,14.5024105 23.5888257,14.1689007 C21.7829458,13.2868051 19.7610425,12.8197018 17.7419816,12.8197018 C15.7248157,12.8197018 13.7038598,13.2868051 11.8951375,14.1689007 C11.2120109,14.5024105 10.602787,14.6720078 10.0854677,14.6720078 C8.84712302,14.6720078 8.2350567,13.6061028 7.93755078,12.699373 C14.2931868,10.1876271 21.1926713,10.1876271 27.5492548,12.699373 C27.2517489,13.6061028 26.6406301,14.6720078 25.4013379,14.6720078 Z M7.6713114,9.60493242 C7.6713114,5.99885746 12.2447543,2.7139752 17.2625612,2.7139752 L18.2223494,2.7139752 C23.2429987,2.7139752 27.8145467,5.99885746 27.8145467,9.60493242 L27.8145467,10.9607636 C21.2741538,8.47744183 14.2126518,8.47744183 7.6713114,10.9607636 L7.6713114,9.60493242 Z M21.0514981,6.02538665 C21.0514981,4.72166643 19.5990249,3.70124007 17.7438765,3.70124007 C15.8858857,3.70124007 14.4334126,4.72166643 14.4334126,6.02538665 C14.4334126,7.32910687 15.8858857,8.34953323 17.7438765,8.34953323 C19.5990249,8.34953323 21.0514981,7.32910687 21.0514981,6.02538665 Z M15.7181834,6.02538665 C15.7181834,5.53459663 16.5851194,4.98601087 17.7438765,4.98601087 C18.9016862,4.98601087 19.7667273,5.53459663 19.7667273,6.02538665 C19.7667273,6.51617668 18.9016862,7.06570991 17.7438765,7.06570991 C16.5851194,7.06570991 15.7181834,6.51617668 15.7181834,6.02538665 Z" id="Fill-12"></path>
        </g>
    </g>
</svg>